# xmcd CD database file
#
# Track frame offsets:
#	150
#	10593
#	24316
#	34394
#	50841
#	65449
#	80144
#	90586
#	110334
#	123424
#	138645
#	150918
#	167050
#	184111
#	197296
#	209396
#	223505
#	240125
#	259429
#	275050
#
# Disc length: 3862 seconds
#
# Revision: 1
# Processed by: cddbd v1.5.2PL0 Copyright (c) Steve Scherf et al.
# Submitted via: CDex 1.51
#
DISCID=160f1414
DTITLE=Ruzni interpreti - Dechovka krasna dechovka ma  - CD 07
DYEAR=2004
DGENRE=Country
TTITLE0=Vlcnovjanka - Vlcnovjanka
TTITLE1=Kouzlo ruze - Vlcnovjanka
TTITLE2=Bile ranko - Vlcnovjanka
TTITLE3=Jizda kralu - Vlcnovjanka
TTITLE4=Kdyz prichazi noc - Vlcnovjanka
TTITLE5=Moje pisnicka - Sohajka
TTITLE6=Zlate slunce - Sohajka
TTITLE7=Bojanovske pole  - Sohajka
TTITLE8=Vrat sa zpatky - - Sohajka
TTITLE9=Slysis jak zvoni - Sohajka
TTITLE10=Nese kapela - Lounska trinactka
TTITLE11=Prerovanka - Lounska trinactka
TTITLE12=Lounska kapela - Lounska trinactka
TTITLE13=My zlaty pivicko - Lounska trinactka
TTITLE14=Zustan tu s nami - Lounska trinactka
TTITLE15=Polku hraj - Lounska trinactka
TTITLE16=Pres dve vesnice - Lounska trinactka
TTITLE17=Slunicko zapada - Lounska trinactka
TTITLE18=Starodavna mazurka - Lounska trinactka
TTITLE19=Stastna trinactka - Lounska trinactka
EXTD=YEAR: 2004
EXTT0=VLCNOVJANKA
EXTT1=VLCNOVJANKA
EXTT2=VLCNOVJANKA
EXTT3=VLCNOVJANKA
EXTT4=VLCNOVJANKA
EXTT5=SOHAJKA
EXTT6=SOHAJKA
EXTT7=SOHAJKA
EXTT8=SOHAJKA
EXTT9=SOHAJKA
EXTT10=LOUNSKA TRINACTKA
EXTT11=LOUNSKA TRINACTKA
EXTT12=LOUNSKA TRINACTKA
EXTT13=LOUNSKA TRINACTKA
EXTT14=LOUNSKA TRINACTKA
EXTT15=LOUNSKA TRINACTKA
EXTT16=LOUNSKA TRINACTKA
EXTT17=LOUNSKA TRINACTKA
EXTT18=LOUNSKA TRINACTKA
EXTT19=LOUNSKA TRINACTKA
PLAYORDER=
